<?xml version="1.0" encoding="utf-8"?>
<!-- Generator: Adobe Illustrator 19.2.1, SVG Export Plug-In . SVG Version: 6.00 Build 0)  -->
<svg version="1.1" id="Layer_1" xmlns="http://www.w3.org/2000/svg" xmlns:xlink="http://www.w3.org/1999/xlink" x="0px" y="0px"
	 viewBox="0 0 600 152.5" style="enable-background:new 0 0 600 152.5;" xml:space="preserve">
<style type="text/css">
	.st0{fill:rgba(0,0,0,.7);}
</style>
<g id="perfectial_logo_12_">
	<g>
		<g>
			<path class="st0" d="M67.6,9.4c-6.1-1.3-20-4.2-25.8-5c-2.6,2-3.6,2.8-10.3,7.5l-2.8,2c3,7,6.8,18.3,8.4,23L67.6,9.4z"/>
			<path class="st0" d="M88.7,27c6.5,2.5,14.7,6.9,15.1,7.2c0.1,0.1,10,6.1,10.4,6.4c-4.5-6.6-8.6-10.9-14.3-16.1
				c-2.7-2.5-5.8-4.6-9.1-6.3c-7.6-3.8-16.7-7-19.4-7.9l-8.9,8C67.3,19.7,78.9,23.2,88.7,27z"/>
			<path class="st0" d="M35,40c-1.8-5.7-6.7-18.8-8.9-24.3C15.3,23.2,10.5,26.8,3,32.5c0.2,11.7,0.9,19,2.6,32.5
				c0,0,36.6,10.4,39,11.1c0.1,0,0.2,0.1,0.3,0.1C40.8,59.9,38.6,51.9,35,40z"/>
			<path class="st0" d="M40.4,78.3C36.1,77,9.2,69.2,7,68.6c-0.1,0-0.2-0.1-0.3-0.1c-0.2-0.1-0.4-0.1-0.5-0.2
				c2.4,15.3,4.1,24.2,8,40.8c4.2,16.7,6.8,25.4,11.1,37.9c7.7-7,29.5-25.4,29.5-25.4c7.6-6.4,24.6-21,31.9-27.5
				C72.2,88.3,40.4,78.3,40.4,78.3z"/>
			<path class="st0" d="M116.4,85.1c0,0-0.2-1.4-0.3-1.9c-0.5-2.9-1.1-5.8-1.8-8.6l0,0c-0.3-1.3-0.6-2.5-1-3.7
				C107,79.2,90.2,95,90.1,95.1c-9.5,8.7-19.2,16.8-31.2,27c17.2,5.5,25.1,8.6,32.6,11.7c14.7-12,20-17.4,26.5-24.5
				C118.3,99,117.2,90.7,116.4,85.1z"/>
			<path class="st0" d="M102.3,36.9c-0.4-0.3-0.9-0.6-1.3-0.8l0,0c6.6,10.1,9.6,17.1,13.5,28.2c0,0,2.2,7,2.8,9.6
				c0.7,2.9,1.4,6.2,1.8,8.8c1.2,6.3,2.4,14.9,2.2,22.5c5.8-7.5,8.6-14.1,9.9-17.1c0.2-0.6,0.4-1,0.6-1.3
				c-2.6-17.3-5.5-24.4-11.8-37l0,0c-0.8-0.8-1.8-2-2.8-2.9C112.2,42.4,102.4,36.9,102.3,36.9z"/>
		</g>
	</g>
	<g>
		<g>
			<path class="st0" d="M188.8,60h16c3.4,0,6.1-1,8.1-3s3-4.6,3-7.9c0-3.3-1-5.9-3-7.9s-4.7-3-8.1-3h-16V60L188.8,60z M207.4,27.7
				c3.4,0,6.3,0.6,8.8,1.9s4.6,2.9,6.2,5c1.6,2,2.8,4.3,3.7,6.9c0.8,2.5,1.2,5.1,1.2,7.6s-0.5,5-1.4,7.6c-0.9,2.5-2.2,4.8-4,6.9
				c-1.7,2.1-3.8,3.7-6.3,5s-5.3,1.9-8.5,1.9h-18.4v27.2h-11.6v-70C177.1,27.7,207.4,27.7,207.4,27.7z"/>
			<path class="st0" d="M266,66.8c0-3.5-1-6.1-2.9-7.7c-2-1.6-4.3-2.4-7-2.4c-2.7,0-5.1,0.8-7.1,2.5s-3,4.1-3,7.5v1.6h20V66.8
				L266,66.8z M245.9,76.1v2.5c0,1.8,0.3,3.3,0.9,4.5c0.6,1.3,1.4,2.3,2.4,3c1,0.8,2.1,1.4,3.5,1.7c1.3,0.4,2.7,0.6,4.1,0.6
				c1.6,0,3.4-0.3,5.6-0.8s4.4-1.8,6.6-3.8c1.1,1.3,2.1,2.5,3.2,3.7c1,1.2,2.1,2.4,3.1,3.7c-2.8,2.8-5.8,4.6-9,5.5
				c-3.1,0.9-6.3,1.4-9.5,1.4c-2.9,0-5.7-0.4-8.3-1.1s-4.9-1.9-6.9-3.4s-3.6-3.4-4.7-5.7c-1.2-2.3-1.7-5-1.7-8.1V66.6
				c0-3,0.5-5.8,1.6-8.2c1-2.4,2.5-4.5,4.4-6.2s4.1-3,6.6-3.9s5.2-1.4,8.2-1.4s5.8,0.4,8.4,1.3c2.6,0.9,4.8,2.1,6.6,3.8
				c1.9,1.7,3.3,3.7,4.3,6c1,2.4,1.5,5.1,1.5,8.1V76L245.9,76.1L245.9,76.1L245.9,76.1z"/>
			<path class="st0" d="M316.9,58c-4.5,0.4-8.2,1.2-11.1,2.2c-2.9,1.1-5.4,2.2-7.4,3.5v34h-10.8V47.3h9.7l0.9,7.4h0.1
				c0.9-0.9,2-1.8,3.4-2.7s2.9-1.8,4.6-2.6s3.4-1.4,5.2-1.9c1.8-0.5,3.6-0.8,5.3-0.8L316.9,58L316.9,58z"/>
			<path class="st0" d="M340.8,56.6v41.1h-10.6V56.6h-6v-9.1h6v-8.8c0-2.3,0.4-4.3,1.1-6.1c0.7-1.7,1.7-3.2,3-4.3
				c1.3-1.2,2.7-2,4.4-2.6c1.7-0.5,3.5-0.8,5.5-0.8h8.9v9.3h-7.4c-2,0-3.3,0.5-4,1.6s-1,2.4-1,4.1v7.5h12.4v9.1L340.8,56.6
				L340.8,56.6z"/>
			<path class="st0" d="M391.3,66.8c0-3.5-1-6.1-2.9-7.7c-2-1.6-4.3-2.4-7-2.4s-5.1,0.8-7.1,2.5s-3,4.1-3,7.5v1.6h20V66.8
				L391.3,66.8z M371.2,76.1v2.5c0,1.8,0.3,3.3,0.9,4.5c0.6,1.3,1.4,2.3,2.4,3c1,0.8,2.1,1.4,3.5,1.7c1.3,0.4,2.7,0.6,4.1,0.6
				c1.6,0,3.4-0.3,5.6-0.8s4.4-1.8,6.6-3.8c1.1,1.3,2.1,2.5,3.2,3.7c1,1.2,2.1,2.4,3.1,3.7c-2.8,2.8-5.8,4.6-9,5.5
				c-3.1,0.9-6.3,1.4-9.5,1.4c-2.9,0-5.7-0.4-8.3-1.1c-2.6-0.7-4.9-1.9-6.9-3.4s-3.6-3.4-4.7-5.7c-1.2-2.3-1.7-5-1.7-8.1V66.6
				c0-3,0.5-5.8,1.6-8.2c1-2.4,2.5-4.5,4.4-6.2s4.1-3,6.6-3.9s5.2-1.4,8.2-1.4s5.8,0.4,8.4,1.3c2.6,0.9,4.8,2.1,6.6,3.8
				c1.9,1.7,3.3,3.7,4.3,6c1,2.4,1.5,5.1,1.5,8.1V76L371.2,76.1L371.2,76.1L371.2,76.1z"/>
			<path class="st0" d="M450.3,91.4c-2.7,2.8-5.6,4.6-8.6,5.5s-6.1,1.3-9.1,1.3c-2.8,0-5.5-0.4-8-1.2c-2.5-0.8-4.7-2-6.5-3.6
				s-3.3-3.4-4.3-5.6c-1.1-2.2-1.6-4.7-1.6-7.6V65.3c0-3,0.6-5.6,1.7-7.9c1.1-2.3,2.7-4.2,4.6-5.8s4.1-2.7,6.5-3.6
				c2.4-0.8,4.9-1.2,7.5-1.2c1.5,0,3,0.1,4.6,0.3s3.1,0.5,4.6,0.9s3,1.1,4.5,1.9c1.5,0.8,2.9,2,4.2,3.4l-6.3,8
				c-2.3-2.1-4.3-3.4-6.1-3.9c-1.8-0.5-3.4-0.7-4.7-0.7c-1.2,0-2.3,0.2-3.6,0.6c-1.2,0.4-2.3,1-3.3,1.8s-1.8,1.9-2.4,3.2
				s-1,2.9-1,4.8v10.8c0,1.9,0.3,3.5,0.9,4.8s1.3,2.4,2.3,3.2c0.9,0.8,2,1.4,3.3,1.8c1.2,0.4,2.5,0.6,3.8,0.6c1.4,0,3.1-0.3,5.2-1
				c2-0.6,3.9-1.7,5.5-3.3L450.3,91.4z"/>
			<path class="st0" d="M458.4,56.6v-9.1h6.9l2.2-12.1h8.4v12.1H489v9.1h-13.1v22.7c0,3.2,0.4,5.5,1.3,6.9s2.8,2.1,5.7,2.1
				c0.9,0,2-0.1,3.5-0.3c1.4-0.2,2.9-0.5,4.4-1l2.1,9.4c-2,0.7-4.2,1.2-6.4,1.4c-2.3,0.2-4.1,0.3-5.4,0.3c-3,0-5.5-0.4-7.5-1.2
				c-2-0.8-3.6-1.9-4.9-3.4c-1.2-1.5-2.1-3.3-2.7-5.4c-0.5-2.1-0.8-4.6-0.8-7.3V56.6H458.4z"/>
			<path class="st0" d="M502.5,47.4h10.8v50.3h-10.8V47.4L502.5,47.4z M501.7,33c0-1.8,0.6-3.2,1.8-4.4c1.2-1.2,2.6-1.8,4.3-1.8
				c1.8,0,3.2,0.6,4.4,1.8c1.2,1.2,1.8,2.7,1.8,4.4c0,1.8-0.6,3.2-1.8,4.4s-2.7,1.8-4.4,1.8c-1.7,0-3.1-0.6-4.3-1.8
				C502.3,36.3,501.7,34.8,501.7,33z"/>
			<path class="st0" d="M556.8,76.2h-12.1c-1,0-1.9,0.1-2.9,0.2s-2,0.4-2.8,0.9c-0.8,0.4-1.6,1.1-2.1,1.9c-0.6,0.8-0.9,1.9-0.9,3.4
				c0,1.9,0.7,3.4,2,4.4c1.4,1,3.1,1.6,5.4,1.6c1.2,0,2.4-0.2,3.7-0.5c1.2-0.3,2.4-0.7,3.6-1.1c1.2-0.4,2.3-0.9,3.4-1.5
				c1-0.5,2-1,2.8-1.5v-7.8H556.8z M556.6,93.1c-3.6,2-6.6,3.4-9.1,4s-4.8,1-6.9,1c-5,0-8.9-1.4-11.8-4.1c-2.8-2.7-4.3-6.4-4.3-11.2
				c0-2.8,0.6-5.1,1.8-7s2.7-3.4,4.6-4.6c1.8-1.2,3.8-2,5.9-2.6c2.1-0.5,4.1-0.8,5.9-0.8h13.9v-3c0-3-0.8-5.1-2.5-6.4
				c-1.7-1.3-4.3-1.9-7.8-1.9c-1.7,0-3.8,0.3-6.2,0.8c-2.5,0.5-5,1.8-7.5,3.8l-5-8c3.4-2.6,6.8-4.2,10.2-5s6.6-1.2,9.5-1.2
				c6.9,0,12,1.5,15.2,4.6c3.2,3,4.9,7.7,4.9,13.9v32.4h-9.7l-0.9-4.4L556.6,93.1z"/>
			<path class="st0" d="M591.1,83c0,2.4,0.5,4,1.5,4.6s2.9,0.9,5.7,0.9l0.2,9.3c-1,0.2-2,0.3-2.9,0.4s-1.8,0.1-2.6,0.1
				c-2.7,0-4.9-0.3-6.5-1c-1.6-0.6-2.9-1.6-3.8-2.7c-0.9-1.2-1.5-2.6-1.8-4.3c-0.3-1.7-0.5-3.5-0.5-5.6V25h10.8v58H591.1z"/>
		</g>
	</g>
</g>
<g>
	<path class="st0" d="M186.1,129.7h-9.7v-17.1h9.7v2.4h-6.9v4.7h6.5v2.3h-6.5v5.4h6.9V129.7z"/>
	<path class="st0" d="M206.4,129.7l-5-14.3h-0.1c0.1,2.1,0.2,4.1,0.2,6v8.3H199v-17.1h3.9l4.8,13.6h0.1l4.9-13.6h4v17.1H214v-8.5
		c0-0.9,0-2,0.1-3.3s0.1-2.2,0.1-2.5H214l-5.1,14.3H206.4z"/>
	<path class="st0" d="M241.7,117.7c0,1.8-0.6,3.2-1.8,4.1s-2.8,1.4-5,1.4h-1.8v6.4h-2.8v-17.1h4.9c2.1,0,3.7,0.4,4.8,1.3
		S241.7,116,241.7,117.7z M233.2,120.9h1.5c1.4,0,2.5-0.2,3.2-0.8s1-1.3,1-2.3s-0.3-1.7-0.9-2.2s-1.5-0.7-2.8-0.7h-1.9v6H233.2z"/>
	<path class="st0" d="M269.6,121.1c0,2.8-0.7,5-2.1,6.5c-1.4,1.5-3.4,2.3-5.9,2.3c-2.6,0-4.6-0.8-6-2.3s-2.1-3.7-2.1-6.5
		s0.7-5,2.1-6.5c1.4-1.5,3.4-2.3,6-2.3c2.5,0,4.5,0.8,5.9,2.3S269.6,118.3,269.6,121.1z M256.5,121.1c0,2.1,0.4,3.7,1.3,4.8
		s2.1,1.6,3.8,1.6c1.7,0,2.9-0.5,3.8-1.6s1.3-2.7,1.3-4.8c0-2.1-0.4-3.7-1.3-4.8s-2.1-1.6-3.8-1.6c-1.7,0-2.9,0.5-3.8,1.6
		S256.5,119,256.5,121.1z"/>
	<path class="st0" d="M298.3,129.7h-3l-2.9-10.2c-0.1-0.4-0.3-1.1-0.5-1.9s-0.3-1.4-0.3-1.8c-0.1,0.5-0.2,1.1-0.4,1.9
		s-0.3,1.4-0.4,1.8l-2.8,10.2h-3l-2.2-8.6l-2.2-8.6h2.9l2.4,10c0.4,1.6,0.7,3,0.8,4.2c0.1-0.7,0.2-1.4,0.4-2.2s0.3-1.5,0.5-2l2.8-10
		h2.8l2.9,10.1c0.3,0.9,0.6,2.3,0.9,4.2c0.1-1.1,0.4-2.5,0.8-4.3l2.4-10h2.8L298.3,129.7z"/>
	<path class="st0" d="M324.2,129.7h-9.7v-17.1h9.7v2.4h-6.9v4.7h6.5v2.3h-6.5v5.4h6.9V129.7z"/>
	<path class="st0" d="M339.9,122.9v6.8h-2.8v-17.1h4.8c2.2,0,3.8,0.4,4.9,1.2s1.6,2.1,1.6,3.8c0,2.1-1.1,3.7-3.3,4.6l4.8,7.6h-3.2
		l-4.1-6.8L339.9,122.9L339.9,122.9z M339.9,120.5h1.9c1.3,0,2.2-0.2,2.8-0.7s0.9-1.2,0.9-2.2s-0.3-1.7-0.9-2.1s-1.6-0.6-2.9-0.6
		h-1.9v5.6C339.8,120.5,339.9,120.5,339.9,120.5z"/>
	<path class="st0" d="M382,120.4l4.1-7.8h3l-5.7,10.5v6.6h-2.8v-6.6l-5.7-10.6h3L382,120.4z"/>
	<path class="st0" d="M415.8,121.1c0,2.8-0.7,5-2.1,6.5c-1.4,1.5-3.4,2.3-5.9,2.3c-2.6,0-4.6-0.8-6-2.3s-2.1-3.7-2.1-6.5
		s0.7-5,2.1-6.5s3.4-2.3,6-2.3c2.5,0,4.5,0.8,5.9,2.3S415.8,118.3,415.8,121.1z M402.7,121.1c0,2.1,0.4,3.7,1.3,4.8s2.1,1.6,3.8,1.6
		c1.7,0,2.9-0.5,3.8-1.6s1.3-2.7,1.3-4.8c0-2.1-0.4-3.7-1.3-4.8s-2.1-1.6-3.8-1.6c-1.7,0-2.9,0.5-3.8,1.6S402.7,119,402.7,121.1z"/>
	<path class="st0" d="M442.2,112.6v11.1c0,1.3-0.3,2.4-0.8,3.3s-1.3,1.7-2.4,2.2s-2.3,0.8-3.7,0.8c-2.1,0-3.8-0.6-5-1.7
		s-1.8-2.7-1.8-4.6v-11h2.8v10.8c0,1.4,0.3,2.5,1,3.1s1.7,1,3,1c2.6,0,4-1.4,4-4.2v-10.8C439.3,112.6,442.2,112.6,442.2,112.6z"/>
	<path class="st0" d="M458.6,122.9v6.8h-2.8v-17.1h4.8c2.2,0,3.8,0.4,4.9,1.2s1.6,2.1,1.6,3.8c0,2.1-1.1,3.7-3.3,4.6l4.8,7.6h-3.2
		l-4.1-6.8L458.6,122.9L458.6,122.9z M458.6,120.5h1.9c1.3,0,2.2-0.2,2.8-0.7s0.9-1.2,0.9-2.2s-0.3-1.7-0.9-2.1s-1.6-0.6-2.9-0.6
		h-1.9v5.6C458.5,120.5,458.6,120.5,458.6,120.5z"/>
	<path class="st0" d="M495.8,129.7v-17.1h2.8v17.1H495.8z"/>
	<path class="st0" d="M526.3,121c0,2.8-0.8,5-2.4,6.5s-3.8,2.2-6.8,2.2h-4.8v-17.1h5.3c2.7,0,4.8,0.7,6.4,2.2S526.3,118.3,526.3,121
		z M523.4,121.1c0-4.1-1.9-6.2-5.8-6.2h-2.4v12.4h2C521.3,127.3,523.4,125.3,523.4,121.1z"/>
	<path class="st0" d="M548.9,129.7h-9.7v-17.1h9.7v2.4H542v4.7h6.5v2.3H542v5.4h6.9V129.7z"/>
	<path class="st0" d="M572.5,129.7l-1.7-4.8h-6.6l-1.7,4.8h-3l6.4-17.2h3l6.4,17.2H572.5z M570.1,122.5l-1.6-4.7
		c-0.1-0.3-0.3-0.8-0.5-1.5s-0.3-1.2-0.4-1.5c-0.2,1-0.5,2-0.9,3.2l-1.5,4.5H570.1z"/>
	<path class="st0" d="M596.9,125c0,1.5-0.6,2.7-1.7,3.6s-2.6,1.3-4.6,1.3s-3.5-0.3-4.8-0.9v-2.6c0.8,0.4,1.6,0.7,2.5,0.9
		s1.7,0.3,2.5,0.3c1.1,0,1.9-0.2,2.5-0.6s0.8-1,0.8-1.7c0-0.6-0.2-1.2-0.7-1.6s-1.5-1-3-1.6c-1.6-0.6-2.7-1.4-3.3-2.2s-1-1.8-1-2.9
		c0-1.4,0.5-2.6,1.5-3.4s2.4-1.2,4.1-1.2c1.6,0,3.3,0.4,4.9,1.1l-0.9,2.3c-1.5-0.6-2.9-1-4.1-1c-0.9,0-1.6,0.2-2.1,0.6
		s-0.7,0.9-0.7,1.6c0,0.4,0.1,0.8,0.3,1.1s0.5,0.6,0.9,0.9s1.2,0.7,2.3,1.1c1.3,0.5,2.2,1,2.8,1.5s1,1,1.3,1.5
		S596.9,124.3,596.9,125z"/>
</g>
</svg>
